<svg width="90" height="90" viewBox="0 0 90 90" fill="none" xmlns="http://www.w3.org/2000/svg">
<path fill-rule="evenodd" clip-rule="evenodd" d="M63.319 37.7113C61.8303 37.7113 60.6221 36.469 60.6221 34.9384V27.0006C60.6221 19.2513 54.4911 12.9476 46.9541 12.9476H46.8966C43.2539 12.9476 39.8414 14.3895 37.2632 17.0182C34.667 19.658 33.2322 23.1814 33.2178 26.9377V34.9384C33.2178 36.469 32.0096 37.7113 30.5209 37.7113C29.0322 37.7113 27.824 36.469 27.824 34.9384V27.0006C27.8455 21.6766 29.8485 16.7631 33.4623 13.0807C37.0798 9.39458 41.8551 7.2613 46.9649 7.4018C57.4649 7.4018 66.0159 16.1937 66.0159 27.0006V34.9384C66.0159 36.469 64.8077 37.7113 63.319 37.7113Z" fill="#C7C7C7"/>
<path fill-rule="evenodd" clip-rule="evenodd" d="M33.1819 37.448C27.148 37.448 22.2432 42.491 22.2432 48.6948V64.552C22.2432 70.7559 27.148 75.7989 33.1819 75.7989H60.6581C66.6884 75.7989 71.5968 70.7559 71.5968 64.552V48.6948C71.5968 42.491 66.6884 37.448 60.6581 37.448H33.1819ZM60.6581 81.3446H33.1819C24.1742 81.3446 16.8494 73.8135 16.8494 64.552V48.6948C16.8494 39.4334 24.1742 31.9022 33.1819 31.9022H60.6581C69.6658 31.9022 76.9906 39.4334 76.9906 48.6948V64.552C76.9906 73.8135 69.6658 81.3446 60.6581 81.3446Z" fill="#C7C7C7"/>
<path fill-rule="evenodd" clip-rule="evenodd" d="M46.9193 63.5013C45.4306 63.5013 44.2224 62.2591 44.2224 60.7284V52.517C44.2224 50.9863 45.4306 49.7441 46.9193 49.7441C48.408 49.7441 49.6162 50.9863 49.6162 52.517V60.7284C49.6162 62.2591 48.408 63.5013 46.9193 63.5013Z" fill="#C7C7C7"/>
</svg>
