<svg width="87" height="89" viewBox="0 0 87 89" fill="none" xmlns="http://www.w3.org/2000/svg">
<mask id="mask0" mask-type="alpha" maskUnits="userSpaceOnUse" x="14" y="7" width="62" height="76">
<path fill-rule="evenodd" clip-rule="evenodd" d="M14.3843 7.66342H75.3951V82.9218H14.3843V7.66342Z" fill="white"/>
</mask>
<g mask="url(#mask0)">
<path fill-rule="evenodd" clip-rule="evenodd" d="M44.8898 13.2077C41.8405 13.2077 22.6025 20.1732 20.3838 22.0773C19.7294 22.7538 19.7042 23.9296 19.8445 31.8009C19.9092 35.5942 19.9991 40.748 19.9991 47.8836C19.9991 67.1126 40.5748 75.6494 44.8862 77.2207C49.1941 75.642 69.7806 67.0572 69.7806 47.8836C69.7806 40.7406 69.8705 35.5831 69.9388 31.7898C70.0755 23.9259 70.0503 22.7502 69.3563 22.0403C67.1808 20.1732 47.9392 13.2077 44.8898 13.2077ZM44.8897 82.9218C44.6272 82.9218 44.3647 82.8848 44.1094 82.8035C42.9048 82.4301 14.6051 73.3276 14.6051 47.8836C14.6051 40.7961 14.5152 35.6681 14.4505 31.9044C14.2851 22.5024 14.2491 20.5429 16.6116 18.1176C19.4344 15.2079 40.812 7.66196 44.8897 7.66196C48.9639 7.66196 70.3414 15.2079 73.1714 18.1176C75.5303 20.5429 75.4943 22.5024 75.3289 31.8933C75.2642 35.657 75.1743 40.785 75.1743 47.8836C75.1743 73.3276 46.8746 82.4301 45.67 82.8035C45.4147 82.8848 45.1522 82.9218 44.8897 82.9218Z" fill="#C7C7C7"/>
</g>
<path fill-rule="evenodd" clip-rule="evenodd" d="M42.349 53.9488C41.6334 53.9488 40.9466 53.6568 40.4396 53.1355L33.6362 46.133C32.5862 45.0497 32.5862 43.2899 33.6398 42.2103C34.6898 41.127 36.4014 41.127 37.455 42.2103L42.349 47.2495L54.46 34.7974C55.5136 33.7142 57.218 33.7142 58.2716 34.7974C59.3252 35.8807 59.3252 37.6369 58.2716 38.7202L44.2548 53.1355C43.7514 53.6568 43.0646 53.9488 42.349 53.9488Z" fill="#C7C7C7"/>
</svg>
